<?xml version="1.0" standalone="no"?>
<!DOCTYPE svg PUBLIC "-//W3C//DTD SVG 20010904//EN"
 "http://www.w3.org/TR/2001/REC-SVG-20010904/DTD/svg10.dtd">
<svg version="1.0" xmlns="http://www.w3.org/2000/svg"
 width="700.000000pt" height="700.000000pt" viewBox="0 0 700.000000 700.000000"
 preserveAspectRatio="xMidYMid meet">
<metadata>
Created by potrace 1.14, written by Peter Selinger 2001-2017
</metadata>
<g transform="translate(0.000000,700.000000) scale(0.100000,-0.100000)"
fill="#000000" stroke="none">
<path d="M3427 6994 c-1 -1 -49 -5 -107 -8 -58 -4 -127 -9 -155 -11 -27 -3
-82 -7 -122 -10 -145 -10 -182 -21 -353 -102 -164 -78 -196 -89 -285 -103
-107 -17 -190 -37 -234 -57 -20 -9 -92 -56 -161 -104 -172 -120 -183 -124
-548 -219 -231 -60 -351 -113 -429 -189 -21 -21 -78 -97 -125 -167 -48 -71
-123 -167 -168 -214 -176 -183 -208 -229 -268 -390 -21 -58 -51 -132 -67 -165
-84 -184 -127 -311 -171 -500 -30 -130 -36 -172 -40 -315 -7 -271 -11 -298
-59 -450 -57 -177 -58 -186 -60 -395 -1 -110 -5 -213 -8 -230 -4 -16 -9 -44
-12 -62 -3 -17 -17 -80 -31 -140 -34 -138 -30 -194 23 -388 47 -172 68 -214
186 -378 74 -103 96 -150 168 -362 62 -185 109 -279 191 -380 99 -124 228
-301 278 -384 174 -289 223 -357 342 -483 134 -140 202 -188 428 -304 144 -73
192 -104 305 -193 98 -78 275 -171 406 -214 216 -71 432 -91 629 -58 83 14
146 17 300 14 107 -2 211 -5 230 -7 296 -32 537 -24 718 25 135 36 394 148
602 260 47 25 148 79 225 119 77 40 171 91 208 112 38 21 71 38 73 38 12 0
201 122 284 183 98 73 291 256 347 331 18 23 41 52 50 64 10 11 58 79 106 151
68 99 110 149 175 208 170 153 211 204 251 314 24 69 47 145 55 184 4 17 8 39
10 50 30 146 80 313 111 375 13 25 66 110 118 187 103 154 134 221 149 328 13
89 4 348 -17 490 -8 61 -17 124 -20 140 -12 83 -42 262 -56 331 -5 28 -12 62
-14 76 -26 140 -93 339 -173 515 -34 72 -98 241 -143 375 -126 374 -179 486
-310 653 -39 50 -128 176 -197 280 -162 244 -251 362 -349 456 -132 129 -240
189 -446 248 -147 42 -152 45 -316 174 -117 92 -233 141 -381 160 -81 11 -103
17 -289 78 -207 68 -294 80 -392 53 -89 -25 -133 -26 -200 -8 -51 14 -251 27
-262 18z m233 -138 c88 -21 151 -20 240 5 102 28 149 22 365 -50 99 -32 198
-62 220 -65 226 -31 260 -45 431 -177 123 -95 173 -122 284 -154 195 -57 246
-80 342 -153 124 -93 204 -190 398 -482 68 -102 157 -230 200 -285 146 -191
183 -268 311 -642 49 -146 121 -333 159 -417 109 -242 161 -430 210 -769 6
-43 13 -88 15 -100 4 -21 5 -33 21 -142 3 -27 8 -59 11 -70 9 -45 12 -363 3
-407 -14 -69 -45 -130 -138 -268 -90 -134 -130 -206 -156 -284 -17 -50 -75
-272 -82 -316 -10 -56 -57 -208 -80 -255 -27 -58 -51 -85 -195 -216 -71 -65
-123 -124 -164 -185 -121 -182 -201 -282 -309 -389 -163 -163 -314 -269 -591
-415 -113 -59 -207 -110 -309 -165 -358 -193 -612 -295 -801 -320 -47 -7 -336
-7 -380 -1 -172 24 -610 26 -725 3 -93 -19 -274 -16 -380 7 -196 42 -397 130
-525 230 -123 96 -198 143 -350 222 -195 101 -251 139 -360 248 -104 104 -202
232 -272 353 -80 140 -195 310 -318 468 -64 83 -129 175 -144 205 -16 30 -54
131 -86 225 -67 198 -102 272 -182 380 -32 44 -68 96 -79 115 -48 82 -112 293
-121 400 -4 39 3 88 21 165 44 188 47 215 51 443 4 210 3 203 49 344 44 132
63 233 65 350 7 296 7 297 61 512 33 132 86 273 176 471 7 17 29 71 48 122 50
131 65 154 205 298 93 96 159 181 233 296 30 47 70 100 89 117 64 61 189 110
439 173 292 73 348 96 505 209 142 102 179 118 314 141 147 24 187 38 341 111
183 88 193 91 365 104 44 3 100 7 125 9 25 2 97 7 160 11 63 3 116 7 117 8 7
6 121 -6 173 -18z"/>
</g>
</svg>
